<?xml version="1.0" encoding="UTF-8" standalone="no"?>
<!-- Created with Inkscape (http://www.inkscape.org/) -->

<svg
   xmlns:dc="http://purl.org/dc/elements/1.1/"
   xmlns:cc="http://creativecommons.org/ns#"
   xmlns:rdf="http://www.w3.org/1999/02/22-rdf-syntax-ns#"
   xmlns:svg="http://www.w3.org/2000/svg"
   xmlns="http://www.w3.org/2000/svg"
   xmlns:sodipodi="http://sodipodi.sourceforge.net/DTD/sodipodi-0.dtd"
   xmlns:inkscape="http://www.inkscape.org/namespaces/inkscape"
   version="1.1"
   id="svg10"
   width="1066.6667"
   height="1600"
   viewBox="0 0 1066.6667 1600"
   sodipodi:docname="flowerSVG.svg"
   inkscape:version="0.92.2 (5c3e80d, 2017-08-06)">
  <metadata
     id="metadata16">
    <rdf:RDF>
      <cc:Work
         rdf:about="">
        <dc:format>image/svg+xml</dc:format>
        <dc:type
           rdf:resource="http://purl.org/dc/dcmitype/StillImage" />
        <dc:title></dc:title>
      </cc:Work>
    </rdf:RDF>
  </metadata>
  <defs
     id="defs14" />
  <sodipodi:namedview
     pagecolor="#ffffff"
     bordercolor="#666666"
     borderopacity="1"
     objecttolerance="10"
     gridtolerance="10"
     guidetolerance="10"
     inkscape:pageopacity="0"
     inkscape:pageshadow="2"
     inkscape:window-width="2560"
     inkscape:window-height="1377"
     id="namedview12"
     showgrid="false"
     inkscape:zoom="0.755"
     inkscape:cx="29318.241"
     inkscape:cy="800"
     inkscape:window-x="-8"
     inkscape:window-y="-8"
     inkscape:window-maximized="1"
     inkscape:current-layer="svg10" />
  <path
     style="fill:#fff0f0;fill-opacity:1;stroke-width:1.36568511"
     d="m 29232.517,1288.4845 c 9.846,-3.2629 10.7,-3.2614 17.333,0.033 l 5.334,2.6477 -15.334,-0.014 -15.333,-0.014 8,-2.651 z m 106,-2.0816 c 0,-2.7434 0.628,-6.2179 1.394,-7.7213 1.662,-3.2565 1.693,-43.9284 0.04,-52.8363 -0.621,-3.3526 -2.366,-7.3924 -3.876,-8.9772 -3.651,-3.8301 -5.275,-2.3273 -12.269,11.3535 -5.515,10.7901 -8.333,14.3456 -14.826,18.7117 -3.462,2.3278 -3.553,2.3052 -4.365,-1.086 l -0.828,-3.4635 -2.969,2.9293 c -1.633,1.6111 -4.619,3.9609 -6.636,5.2215 -2.016,1.2608 -3.666,3.0687 -3.666,4.0177 0,2.2306 -7.455,8.1813 -13.653,10.898 -7.333,3.2145 -21.207,3.1168 -26.6,-0.1875 -2.427,-1.4877 -4.414,-3.2682 -4.414,-3.957 0,-0.6886 2.291,-2.5176 5.09,-4.0644 2.8,-1.5468 7.544,-5.6047 10.543,-9.0176 l 5.452,-6.2054 -4.379,-3.7491 c -3.637,-3.1146 -4.145,-4.2044 -2.998,-6.4378 2.048,-3.9875 6.938,-8.3059 13.048,-11.5206 2.982,-1.5693 6.26,-3.9116 7.283,-5.2051 1.616,-2.0426 1.532,-2.604 -0.638,-4.2687 -2.841,-2.1793 -7.399,-1.4423 -13.482,2.1801 -4.353,2.5925 -12.463,2.3055 -14.232,-0.5034 -3.475,-5.5182 2.057,-28.1615 8.102,-33.1613 6.37,-5.2686 11.462,-3.3446 32.075,12.1205 5.572,4.1801 12.647,4.4148 18.136,0.6013 4.717,-3.277 6.798,-3.4383 11.457,-0.8876 4.834,2.6459 21.21,5.8348 21.21,4.1301 0,-0.3458 -0.642,-1.8871 -1.427,-3.4251 -2.256,-4.4234 -2.653,-7.6751 -3.479,-28.4932 -0.427,-10.771 -1.372,-20.3704 -2.099,-21.332 -1.967,-2.6016 -4.704,-2.1169 -5.647,0.9997 -0.457,1.5116 -3.293,7.2088 -6.302,12.6606 -5.314,9.6305 -5.606,9.9003 -10.258,9.4914 l -4.788,-0.4209 v -15.387 c 0,-12.4042 -0.453,-16.0575 -2.334,-18.8457 -3.588,-5.3192 -2.887,-11.1031 2.334,-19.2357 5.58,-8.6931 5.706,-10.671 1.221,-19.0907 -1.895,-3.5572 -3.183,-7.2558 -2.861,-8.2195 0.618,-1.8532 -9.725,-9.4454 -12.868,-9.4454 -1.904,0 -3.685,-6.2391 -2.615,-9.1639 0.983,-2.6863 6.513,-4.6808 15.724,-5.6708 l 8.65,-0.9299 2.374,4.3765 c 1.306,2.407 2.775,4.3803 3.264,4.3852 0.489,0 3.931,-3.6106 7.648,-8.0344 6.262,-7.4528 6.76,-8.5773 6.777,-15.3183 0.01,-4.0011 -0.607,-10.3393 -1.373,-14.0847 -0.997,-4.875 -0.969,-7.9746 0.1,-10.9096 0.819,-2.2551 2.326,-11.5682 3.347,-20.69594 2.071,-18.4941 1.753,-20.02497 -6.111,-29.42148 -3.796,-4.53575 -4.202,-4.68871 -7.653,-2.88256 -2.005,1.04902 -6.038,5.24181 -8.964,9.31721 -18.354,25.57047 -28.777,37.40907 -36.936,41.95597 -4.652,2.5922 -7.842,3.1916 -17.055,3.2053 -10.926,0.017 -11.789,-0.2263 -24,-6.7442 -12.617,-6.7343 -17.334,-10.0925 -17.334,-12.34 0,-0.65 5.14,-1.1819 11.421,-1.1819 11.024,0 16.579,-1.4226 16.579,-4.24567 0,-0.74235 -0.836,-1.34969 -1.859,-1.34969 -1.022,0 -3.802,-1.90404 -6.176,-4.23129 -4.209,-4.12408 -4.257,-4.30253 -1.896,-7.03922 4.386,-5.08412 10.48,-7.95387 18.598,-8.75697 8.979,-0.88839 23.798,-6.78317 24.381,-9.69835 0.21,-1.04911 -1.037,-4.10145 -2.772,-6.7831 -4.275,-6.60849 -4.791,-9.36641 -3.442,-18.39153 0.87,-5.81693 0.662,-9.19278 -0.839,-13.65782 -4.394,-13.06454 -0.903,-21.85341 11.246,-28.31009 6.177,-3.28342 8.868,-3.84679 18.374,-3.84679 11.932,0 17.425,1.68509 24.844,7.62193 2.453,1.96279 5.519,3.56868 6.814,3.56868 2.166,0 2.309,-1.59099 1.791,-19.93321 -0.425,-15.0373 -1.192,-21.73413 -3.122,-27.26559 -2.507,-7.18005 -2.508,-7.43352 -0.06,-12.20102 1.939,-3.7787 2.315,-6.49728 1.677,-12.14394 -1.45,-12.85073 -5.538,-12.72914 -11.886,0.35345 -2.013,4.14915 -5.962,10.06176 -8.775,13.13924 -2.812,3.07737 -6.959,8.45546 -9.214,11.95122 -5.131,7.95503 -10.81,14.37111 -14.596,16.49189 -4.376,2.45168 -10.386,1.96584 -12.987,-1.04974 -2.542,-2.94665 -2.207,-4.09795 3.972,-13.64963 4.646,-7.18383 4.29,-8.72645 -1.82,-7.8667 -9.81,1.38043 -27.286,-5.0218 -42.252,-15.47971 -7.894,-5.51562 -18.603,-16.11002 -17.477,-17.29059 0.318,-0.33381 5.116,0.19283 10.662,1.17039 5.546,0.97768 10.414,1.43079 10.818,1.00705 0.404,-0.42384 -1.382,-4.0694 -3.968,-8.10115 -4.722,-7.36144 -5.835,-11.74528 -3.385,-13.33374 0.725,-0.4698 4.68,-1.77301 8.79,-2.89609 6.476,-1.76965 8.319,-1.77825 13.82,-0.064 l 6.348,1.97779 7.446,-7.20753 c 7.344,-7.10798 7.493,-7.41033 10.812,-21.89517 1.851,-8.07819 3.718,-17.06157 4.149,-19.96311 0.946,-6.37799 7.037,-14.0442 12.978,-16.33757 2.387,-0.92123 7.64,-3.46208 11.673,-5.64655 4.034,-2.18437 10.791,-5.0173 15.017,-6.29544 4.516,-1.36574 7.334,-2.91759 6.836,-3.76381 -1.461,-2.47969 -11.651,-6.68108 -16.282,-6.71329 -5.281,-0.0367 -16.237,-6.39993 -16.237,-9.43072 0,-1.71457 -0.862,-1.91474 -4.334,-1.00652 -2.383,0.62359 -7.933,1.17438 -12.333,1.224 l -8,0.0902 -0.413,-5.23383 c -0.315,-3.98591 0.03,-5.05748 1.424,-4.49421 1.01,0.40674 3.446,-0.58834 5.412,-2.21122 l 3.576,-2.95085 -3.333,-5.96664 c -4.156,-7.44065 -4.176,-9.71796 -0.113,-13.07083 1.771,-1.46132 3.887,-5.25471 4.701,-8.42965 1.096,-4.26831 4.426,-8.96745 12.781,-18.03309 6.214,-6.74325 11.298,-12.99976 11.298,-13.90331 0,-2.05292 -3.08,-3.34094 -7.99,-3.34094 -2.555,0 -4.859,-1.35455 -7.139,-4.19646 -2.708,-3.3766 -4.409,-4.19647 -8.706,-4.19647 -2.937,0 -5.712,-0.62947 -6.165,-1.39883 -0.497,-0.84479 1.32,-1.39882 4.588,-1.39882 5.074,0 5.412,-0.25186 5.412,-4.02563 0,-2.2141 -0.962,-6.44051 -2.137,-9.39202 -2.063,-5.18 -2.023,-9.00553 0.205,-19.82948 0.797,-3.8688 0.608,-4.43696 -1.23,-3.69711 -3.979,1.60196 -2.238,-1.93194 3.162,-6.41923 2.934,-2.43735 5.334,-4.96423 5.334,-5.61527 0,-0.65104 -2.85,-4.39438 -6.334,-8.31852 l -6.333,-7.13483 -7.566,1.70855 c -9.348,2.1109 -18.254,0.57209 -34.434,-5.94916 -13.57,-5.46945 -18.667,-10.15585 -18.667,-17.16468 0,-2.70651 -0.6,-5.30996 -1.333,-5.78544 -0.733,-0.47549 -1.333,-2.73793 -1.333,-5.02765 0,-3.68249 0.297,-3.99595 2.579,-2.71508 2.959,1.66186 13.416,1.97247 13.43,0.39892 0.02,-1.98491 8.819,-7.33742 15.478,-9.41194 3.668,-1.14279 8.134,-3.73784 9.924,-5.76679 1.79,-2.02894 9.405,-8.03434 16.922,-13.34536 7.517,-5.311 13.667,-10.24293 13.667,-10.95984 0,-2.20429 12.211,-11.22337 15.196,-11.22337 3.316,0 12.553,6.71363 20.605,14.97681 5.253,5.39078 10.286,8.47857 11.589,7.11098 2.345,-2.45951 5.272,-57.30761 3.489,-65.362 -0.854,-3.85589 -0.908,-7.11846 -0.144,-8.61685 0.676,-1.32629 1.342,-6.7811 1.479,-12.12182 0.207,-8.07836 -0.254,-10.45051 -2.741,-14.11399 -3.409,-5.02287 -5.863,-5.58712 -7.603,-1.74827 -2.478,5.46576 -22.304,25.32109 -25.284,25.32109 -0.574,0 -2.29,1.10158 -3.815,2.44795 l -2.771,2.44793 2.666,-3.45351 c 1.467,-1.89942 3.417,-4.30491 4.334,-5.3455 3.165,-3.5936 1.655,-3.60325 -2,-0.0126 -2.017,1.9809 -5.005,4.02544 -6.64,4.54343 -1.635,0.51799 -2.835,1.46997 -2.667,2.1155 0.391,1.49661 -1.522,1.45266 -5.479,-0.12589 -2.09,-0.83328 -5.017,-0.56836 -8.865,0.80211 -6.177,2.20004 -15.427,1.49216 -14.961,-1.14491 0.153,-0.86619 -0.922,-1.40186 -2.388,-1.19036 -2.459,0.35451 -2.483,0.26585 -0.306,-1.13508 1.299,-0.8358 2.04,-2.0651 1.648,-2.73176 -0.393,-0.66668 0.497,-1.61569 1.979,-2.10892 1.481,-0.49324 4.34,-2.3082 6.352,-4.03327 2.013,-1.72505 6.444,-4.81494 9.847,-6.86639 3.403,-2.05146 11.74,-8.77965 18.527,-14.95155 10.681,-9.71243 13.01,-11.22163 17.317,-11.22163 5.818,0 12.637,2.73564 17.209,6.90331 1.782,1.62458 3.882,2.72978 4.666,2.45598 2.465,-0.85991 3.79,-16.32483 2.247,-26.23078 -1.339,-8.60424 -0.531,-20.39167 1.832,-26.7002 0.475,-1.26855 0.222,-2.72199 -0.561,-3.2299 -0.783,-0.50811 -1.424,-2.566 -1.424,-4.57328 0,-2.00729 -0.636,-7.4806 -1.413,-12.1629 -1.25,-7.53211 -1.97,-8.89617 -6.245,-11.83574 -6.24,-4.29152 -7.752,-3.22225 -12.239,8.65702 -1.961,5.18959 -5.036,10.96694 -6.834,12.83856 -2.724,2.83531 -26.753,17.50836 -28.672,17.50836 -2.079,0 0.144,-6.1372 4.403,-12.1569 2.75,-3.88679 7.938,-13.36134 11.529,-21.05455 4.539,-9.72539 7.69,-14.70739 10.34,-16.34962 4.77,-2.95639 7.798,-8.95207 7.798,-15.4441 0,-2.75904 1.882,-9.04598 4.206,-14.04543 3.418,-7.35427 5.065,-9.37635 8.787,-10.78848 4.389,-1.6648 4.546,-1.9659 3.754,-7.16271 -0.455,-2.98368 -0.228,-6.18117 0.503,-7.1055 0.731,-0.92436 0.961,-4.06235 0.511,-6.97334 l -0.819,-5.2927 -6.805,0.81812 c -5.003,0.60153 -8.067,0.17451 -11.574,-1.61297 -4.51,-2.29853 -13.23,-9.24755 -13.23,-10.5428 0,-0.32936 6.268,-1.03934 13.93,-1.57777 13.67,-0.96067 18.516,-0.0844 20.921,3.78341 1.43,2.3009 3.816,-0.33611 3.816,-4.21862 0,-2.01569 -0.558,-5.59798 -1.241,-7.96067 -4.033,-13.97112 -4.108,-15.13076 -1.288,-19.91696 1.49,-2.53013 4.319,-5.40678 6.286,-6.39261 1.991,-0.99784 3.765,-3.18175 4.002,-4.92664 0.234,-1.72382 1.293,-3.13423 2.353,-3.13423 2.627,0 7.21,8.2171 7.216,12.9391 0,2.87343 0.66,3.84676 2.593,3.84676 6.513,0 5.976,9.4172 -0.988,17.34383 -6.784,7.72142 -11.378,20.29674 -10.599,29.01625 0.344,3.85459 -0.129,7.83405 -1.163,9.79175 -2.158,4.08226 -2.305,9.78473 -0.368,14.2459 1.069,2.45998 1.071,4.1704 0.01,6.25453 -1.306,2.56082 -0.948,3.0469 3.338,4.53081 6.431,2.22685 9.72,9.95415 10.179,23.91745 l 0.34,10.30227 -4.334,0.43833 c -3.253,0.32909 -4.333,1.11348 -4.333,3.14735 0,1.48996 -0.9,2.70902 -2,2.70902 -2.309,0 -2.833,10.43982 -0.702,13.97652 1.627,2.69973 3.234,0.88288 5.345,-6.04155 1.801,-5.90833 7.82,-10.73287 13.357,-10.70597 4.747,0.0231 5.94,1.22726 8.637,8.71599 1.315,3.65443 2.814,6.64441 3.33,6.64441 0.516,0 1.652,1.64413 2.525,3.65361 1.239,2.85286 1.225,4.11111 -0.06,5.74101 -1.489,1.88229 -5.455,4.03335 -8.108,4.39767 -0.558,0.0765 -2.778,1.09619 -4.934,2.26582 -5.403,2.93111 -6.336,2.73951 -10.62,-2.18133 l -3.75,-4.3079 -2.985,5.06706 c -2.666,4.52587 -2.827,5.72445 -1.508,11.22203 1.645,6.85519 1.801,16.78207 0.394,25.09288 -0.968,5.71734 0.29,32.61269 1.589,33.9756 1.577,1.65415 7.803,-4.28248 14.262,-13.59985 8.154,-11.76135 13.688,-14.47183 21.553,-10.55657 2.718,1.35349 8.286,2.40165 13.191,2.48367 10.727,0.17932 29.091,-1.09838 32.155,-2.23712 7.13,-2.65009 7.28,-2.57627 4.806,2.37205 -1.479,2.95901 -1.444,2.97818 1.105,0.60746 3.219,-2.99346 4.945,-3.17853 3.446,-0.3696 -1.95,3.65611 -13.475,10.40307 -20.02,11.72043 -6.062,1.22006 -6.135,1.28838 -1.67,1.57501 l 4.666,0.29963 -4.666,1.17228 c -2.567,0.64476 -6.167,0.89149 -8,0.5483 -3.024,-0.56601 -2.962,-0.42642 0.666,1.50184 l 4,2.12584 -7.333,-0.36938 c -5.786,-0.29144 -7.333,0.0733 -7.333,1.72886 0,1.15403 1.007,2.10626 2.239,2.11607 1.232,0.009 2.682,0.48192 3.222,1.04912 0.541,0.5672 2.533,1.07917 4.428,1.1377 3.352,0.10355 3.333,0.15037 -0.688,1.74852 -2.308,0.91733 -3.877,2.41385 -3.555,3.39064 0.317,0.96168 0.04,1.74852 -0.614,1.74852 -0.654,0 -2.214,-0.78684 -3.466,-1.74852 -1.327,-1.01931 -4.971,-1.5518 -8.738,-1.27682 l -6.461,0.47173 -0.808,9.32002 c -1.748,20.15276 -11.138,50.15167 -16.67,53.25786 -4.204,2.36071 -6.453,0.54414 -10.384,-8.38816 -2.002,-4.54994 -4.491,-8.27263 -5.531,-8.27263 -1.04,0 -2.204,-1.25894 -2.588,-2.79765 -1.153,-4.62392 -2.841,-3.17132 -3.659,3.14735 -0.913,7.06 -3.404,35.81508 -3.362,38.81731 0.02,1.15402 0.993,0.0462 2.171,-2.46208 4.642,-9.87817 20.934,-18.53153 34.844,-18.50658 18.703,0.0336 32.896,15.95265 26.248,29.44034 -1.79,3.63041 -2.122,6.6535 -1.498,13.65486 0.77,8.64966 0.649,9.1402 -3.165,12.87814 -4.45,4.36071 -4.949,7.12679 -1.87,10.3571 2.718,2.85198 19.086,2.88868 26.571,0.0596 7.053,-2.6657 10.004,-2.53032 13.935,0.6394 l 3.268,2.63506 -3.606,5.37706 c -1.984,2.95737 -5.716,7.89492 -8.293,10.97233 l -4.685,5.59529 6.357,0.44828 c 15.031,1.05989 24.078,-3.65555 27.696,-14.4365 l 1.878,-5.59529 0.06,4.45511 c 0.125,9.54334 -4.725,16.48073 -21.275,30.43098 -13.799,11.63161 -18.837,14.60901 -28.035,16.56819 -6.968,1.48442 -8.66,2.36442 -8.779,4.56744 -0.08,1.50084 -1.131,5.06909 -2.333,7.92945 -1.202,2.86037 -2.186,5.86417 -2.186,6.67512 0,3.01645 -7.694,18.98819 -10.322,21.42703 -1.499,1.39079 -4.301,2.97091 -6.227,3.51137 l -3.503,0.98267 8.681,13.27448 c 10.889,16.65024 11.723,20.25815 6.161,26.64716 -4.997,5.7393 -5.825,12.24214 -1.457,11.43789 1.1,-0.20259 5.6,-1.02562 10,-1.82903 4.4,-0.80341 10.4,-2.91046 13.334,-4.68231 6.425,-3.88142 19.377,-5.60805 22.737,-3.03111 2.381,1.82651 2.205,2.655 -4.099,19.35274 -0.795,2.10578 -0.112,2.44685 4.886,2.44013 13.505,-0.0178 21.867,-5.44554 23.693,-15.37931 l 1.157,-6.29469 0.07,6.29469 c 0.04,3.91079 -1.039,8.4734 -2.854,12.04722 -1.607,3.16371 -4.592,9.00897 -6.635,12.98932 -11.726,22.85248 -30.863,31.26471 -48.424,21.28604 -4.218,-2.39681 -8.162,-4.35792 -8.766,-4.35792 -0.603,0 -1.096,1.72716 -1.096,3.83808 0,3.68912 -0.284,3.53091 -7.305,-4.07424 -5.234,-5.66911 -9.203,-8.57359 -14,-10.24514 -3.682,-1.28307 -6.695,-2.86178 -6.695,-3.50814 0,-0.64637 -1.95,-1.6018 -4.333,-2.1231 -2.384,-0.52141 -5.724,-1.87246 -7.423,-3.00236 -4.579,-3.04548 -6.911,-0.31421 -6.911,8.09561 0,7.64449 0.252,7.77406 9.421,4.85405 12.262,-3.90492 18.51,1.0786 21.19,16.90189 2.595,15.32277 3.752,18.16713 8.168,20.08628 2.198,0.95511 6.376,3.54486 9.284,5.75493 4.427,3.36441 6.126,3.87753 10.441,3.15364 6.863,-1.1514 11.685,2.17104 13.519,9.31489 1.602,6.24099 0.03,14.61703 -4.898,26.05072 -1.719,3.98979 -3.125,8.31183 -3.125,9.60445 0,3.07758 -15.321,21.16873 -20.142,23.78449 l -3.748,2.03319 4.612,10.09586 c 2.536,5.55265 4.615,11.68726 4.619,13.63232 0,1.94506 0.655,5.98437 1.447,8.97603 2.35,8.87793 0.64,14.15981 -6.177,19.07996 -3.269,2.35999 -5.944,5.18054 -5.944,6.26795 0,2.58103 10.734,5.45823 25.868,6.93392 8.498,0.82859 14.183,8.51662 10.638,14.38548 -1.779,2.94414 -1.621,3.32696 2.429,5.91104 5.457,3.48139 17.501,6.16639 22.174,4.94312 1.957,-0.51228 4.608,-1.92408 5.891,-3.13738 2.144,-2.02689 2.333,-1.98346 2.333,0.534 0,4.07865 -7.41,10.83664 -18.624,16.98477 -8.576,4.70172 -10.433,6.41136 -13.379,12.31789 -1.882,3.7722 -6.101,10.8136 -9.376,15.6475 -8.292,12.24036 -10.616,17.09773 -10.619,22.19496 0,3.95706 -1.423,5.53115 -13.933,15.43458 -16.171,12.8013 -25.378,17.048 -31.341,14.4565 -3.72,-1.6162 -5.151,-5.4328 -5.255,-14.0146 -0.08,-6.7891 -2.942,-24.36473 -4.23,-25.99275 -2.258,-2.8536 -6.02,-0.20038 -10.719,7.5579 -3.941,6.50829 -3.962,6.65496 -3.78,26.21015 0.187,20.0262 3.207,43.1807 6.439,49.362 1.176,2.2511 1.436,5.8146 0.825,11.339 -0.611,5.5191 -0.267,10.2633 1.092,15.064 1.904,6.7256 1.859,7.2383 -1.117,12.7345 -2.683,4.9547 -2.966,6.7716 -2.098,13.4754 0.551,4.2617 1.338,8.1008 1.748,8.5312 1.679,1.7615 10.157,-3.5957 14.231,-8.9932 2.398,-3.1764 4.95,-5.7753 5.671,-5.7753 0.72,0 3.36,-1.6409 5.867,-3.6466 4.652,-3.7227 4.859,-3.7543 31.932,-4.8822 6.517,-0.2716 8.321,-1.4031 10.567,-6.6275 1.282,-2.9835 2.164,-6.6165 1.96,-8.0732 -1.228,-8.7467 4.259,-12.5332 19.929,-13.7547 l 12.4,-0.9664 -0.918,6.7356 c -0.504,3.7046 -1.447,7.3336 -2.094,8.0645 -1.577,1.7799 -1.491,8.1146 0.172,12.7047 1.844,5.0893 -0.515,13.9627 -5.453,20.5052 -2.783,3.6881 -3.897,6.7059 -3.897,10.5612 0,2.9686 -0.75,6.2325 -1.666,7.2527 -1.375,1.53 -0.673,1.7251 4,1.1124 6.246,-0.819 6.537,-0.3091 3.778,6.6191 -2.676,6.7187 -8.468,12.4653 -15.445,15.3228 -3.3,1.3515 -7.8,3.2877 -10,4.3025 -15.905,7.3367 -24.047,6.118 -30.486,-4.5627 -1.726,-2.8631 -4.94,-7.0941 -7.143,-9.4022 -2.202,-2.3081 -5.05,-7.1378 -6.329,-10.7327 -2.257,-6.3437 -3.298,-7.2389 -11.709,-10.0746 -3.921,-1.3219 -6.11,0.4752 -10.609,8.7089 -4.088,7.4804 -4.36,8.8724 -5.107,26.0867 -1.152,26.5406 -0.319,76.4362 1.354,81.0514 0.787,2.1726 1.306,9.6889 1.152,16.7028 -0.154,7.014 0.187,16.0574 0.757,20.0965 l 1.037,7.3438 h -10.792 -10.792 z m 17.977,-311.37697 c 4.78,-3.94468 7.332,-10.36926 6.021,-15.16229 -1.105,-4.04235 0.495,-8.38664 3.088,-8.38664 0.891,0 3.859,-1.25894 6.596,-2.79767 2.736,-1.53864 5.843,-2.79758 6.904,-2.79758 3.078,0 6.081,-5.75251 6.081,-11.65023 0,-5.2055 -1.309,-7.61396 -10.485,-19.28999 -8.925,-11.35711 -13.113,-13.22264 -18.271,-8.13926 -1.801,1.775 -3.942,5.78619 -4.757,8.91372 -1.538,5.89561 -3.044,58.86302 -1.737,61.08137 1.131,1.91968 2.553,1.5357 6.56,-1.77143 z m -19.988,-12.87643 c 2.208,-1.69395 2.484,-3.80215 2.371,-18.12185 -0.07,-8.91277 -0.516,-16.86276 -0.99,-17.6666 -2.074,-3.52115 -7.047,-1.09842 -15.32,7.46405 -8.882,9.1933 -11.567,14.76946 -9.275,19.26282 0.725,1.42197 0.848,2.60464 0.272,2.62804 -2.851,0.11582 4.711,3.23904 8.089,3.34091 2.174,0.065 4.562,1.20344 5.38,2.56372 1.762,2.93012 6.032,3.16859 9.473,0.52891 z m 51.344,-133.765 c 0,-0.59611 -2.4,-4.85437 -5.333,-9.4628 -2.933,-4.60845 -5.333,-8.7981 -5.333,-9.31028 0,-0.51217 -1.143,-2.21804 -2.54,-3.79098 -2.037,-2.29368 -3.067,-2.56372 -5.203,-1.36406 -4.969,2.7896 -14.924,18.10678 -14.924,22.96136 0,1.59172 3.226,1.98115 16.667,2.01221 9.166,0.021 16.666,-0.44924 16.666,-1.04545 z m -26.747,-26.0274 c 3.621,-5.56367 6.38,-22.48088 4.063,-24.91179 -0.865,-0.90812 -1.316,-0.80614 -1.316,0.29805 0,0.92322 -0.773,1.67859 -1.718,1.67859 -0.945,0 -3.645,3.33535 -6,7.4118 -3.182,5.50828 -4.282,9.07086 -4.282,13.87162 0,9.54748 3.686,10.20539 9.253,1.65173 z m 21.324,-6.09851 c 1.407,-0.79041 2.756,-3.68314 3.261,-6.99404 0.473,-3.10539 1.453,-5.64614 2.178,-5.64614 2.317,0 1.412,-3.78836 -1.38,-5.77433 -1.663,-1.18362 -3.08,-4.31512 -3.696,-8.17052 -0.873,-5.46254 -1.533,-6.41188 -5.228,-7.52363 -6.197,-1.86449 -8.378,-0.45291 -8.378,5.42068 0,2.76232 0.551,4.66468 1.226,4.22752 0.674,-0.43717 2.078,0.0997 3.119,1.192 1.439,1.50915 1.744,4.70781 1.27,13.30175 -0.603,10.91511 -0.521,11.31472 2.301,11.31472 1.609,0 4.006,-0.6066 5.327,-1.34801 z m -9.558,-167.1235 11.018,0.0865 -3.824,-4.28293 c -2.104,-2.35562 -6.003,-7.7968 -8.666,-12.0915 -2.663,-4.2947 -5.991,-8.89893 -7.394,-10.2316 -2.448,-2.32348 -2.687,-2.23253 -5.835,2.21326 -4.269,6.02868 -6.318,12.64162 -6.318,20.38779 v 6.24163 l 5,-1.20478 c 2.75,-0.66264 9.959,-1.16588 16.019,-1.11832 z m -17.019,-36.64064 c 0,-0.96158 -0.537,-2.09659 -1.193,-2.52226 -1.425,-0.92404 -2.823,2.44832 -2.764,6.66822 0.04,2.96782 0.08,2.97463 2,0.31766 1.076,-1.49342 1.957,-3.50204 1.957,-4.46362 z m 15.648,-6.55578 c 0.774,-1.78393 1.122,-4.81219 0.773,-6.72947 -0.391,-2.14859 0.173,-4.18984 1.472,-5.32069 4.553,-3.96414 1.183,-6.85019 -6.792,-5.81728 -2.529,0.32755 -3.319,-2.34032 -1.565,-5.28672 1.356,-2.27727 1.086,-3.79877 -1.619,-9.14924 -1.785,-3.52975 -3.546,-6.41344 -3.914,-6.40817 -0.88,0.0126 -6.669,8.95314 -6.669,10.29956 0,0.57403 2.594,3.72721 5.766,7.00706 5.423,5.60965 9.372,11.99567 6.108,9.87953 -0.785,-0.50931 -0.478,1.00041 0.682,3.35495 1.161,2.35453 2.11,5.8859 2.11,7.84747 0,4.44807 1.787,4.60633 3.648,0.323 z m -142.314,-57.60522 c -4.363,-2.61646 -6.727,-2.58562 -3.412,0.0445 1.423,1.12956 3.523,2.03143 4.667,2.00418 1.332,-0.0318 0.881,-0.7673 -1.255,-2.04866 z m 137.333,0.7102 c 0,-0.76341 1.8,-3.07062 4,-5.1271 2.2,-2.05649 4,-4.50683 4,-5.44521 0,-1.95712 4.944,-5.66439 8.556,-6.41536 1.635,-0.33979 -2.111,-3.36114 -11.295,-9.11057 -7.557,-4.7312 -14.456,-8.31423 -15.33,-7.96228 -1.636,0.65873 -3.264,9.77181 -3.264,18.27279 0,3.46271 1.355,6.55066 4.827,10.99534 4.495,5.75482 8.506,8.01477 8.506,4.79239 z m -30.644,-5.95578 c 2.541,-5.10726 2.839,-7.28632 2.118,-15.46365 -0.587,-6.65191 -1.634,-10.41284 -3.476,-12.48761 -1.45,-1.63291 -2.911,-2.68042 -3.248,-2.32779 -0.336,0.35262 0.07,4.81741 0.905,9.92174 1.479,9.06269 1.427,9.41989 -2.227,15.21307 l -3.742,5.93247 3.157,2.54727 c 1.736,1.401 3.246,2.56127 3.356,2.57837 0.109,0.0171 1.53,-2.64413 3.157,-5.91387 z m -73.987,-6.37426 c -0.411,-0.43068 -1.487,-8.9e-4 -2.391,0.9551 -1.307,1.38149 -1.154,1.54217 0.746,0.78306 1.315,-0.52531 2.055,-1.30747 1.645,-1.73816 z m -5.446,-0.13974 c 0.411,-0.6976 -0.453,-0.93892 -1.921,-0.53627 -3.113,0.85414 -3.507,1.80464 -0.747,1.80464 1.056,0 2.257,-0.57076 2.668,-1.26837 z m 114.744,-91.05382 c 0.453,-0.76935 0.188,-1.39882 -0.588,-1.39882 -0.777,0 -1.412,0.62947 -1.412,1.39882 0,0.76935 0.264,1.39882 0.588,1.39882 0.323,0 0.958,-0.62947 1.412,-1.39882 z m 2,-6.4598 c 0,-1.15403 -0.6,-1.70921 -1.334,-1.23372 -0.733,0.47548 -1.333,1.80872 -1.333,2.96275 0,1.15403 0.6,1.7092 1.333,1.23372 0.734,-0.47549 1.334,-1.80872 1.334,-2.96275 z m 15.941,-14.28057 4.006,-2.55568 -5.64,-3.24742 c -3.103,-1.78608 -6.561,-4.07273 -7.686,-5.08142 -1.721,-1.54319 -2.673,-1.29642 -6,1.55633 -2.658,2.27885 -3.271,3.40682 -1.871,3.44064 1.146,0.0277 3.809,1.93872 5.916,4.24677 4.467,4.89121 5.862,5.09423 11.275,1.64078 z m 44.758,-28.27446 c 0.563,-0.95426 -0.443,-1.12722 -2.921,-0.50263 -5.108,1.28749 -5.592,1.95752 -1.413,1.95752 1.913,0 3.863,-0.65471 4.334,-1.45489 z m -54.059,-60.82649 c -0.928,-1.17261 -1.962,-1.84396 -2.297,-1.49188 -0.925,0.97007 0.954,3.62392 2.565,3.62392 0.884,0 0.783,-0.80262 -0.268,-2.13204 z m -1.307,-5.09521 c 0,-0.64112 -0.9,-1.16568 -2,-1.16568 -1.1,0 -2,0.52456 -2,1.16568 0,0.64114 0.9,1.1657 2,1.1657 1.1,0 2,-0.52456 2,-1.1657 z m -37.333,-31.8572 c 0,-7.04473 -1.294,-7.7899 -5.843,-3.36466 -3.49,3.39512 -3.555,3.68697 -1.37,6.21983 1.261,1.46167 3.4,2.65756 4.753,2.65756 1.975,0 2.46,-1.08691 2.46,-5.51273 z"
     id="path72"
     inkscape:connector-curvature="0" />
  <path
     style="stroke-width:1.3245033;fill:#000000;fill-opacity:0"
     d="m 30106.471,1307.0861 c 0.646,-3.4603 1.174,-18.0204 1.174,-32.3558 0,-24.4443 -0.174,-26.2966 -2.792,-29.8013 -4.466,-5.9773 -7.08,-4.8595 -13.061,5.5862 -7.362,12.8557 -10.397,16.7875 -15.052,19.5035 -3.892,2.2709 -4.028,2.2616 -4.851,-0.3312 -0.466,-1.4672 -1.292,-2.6676 -1.836,-2.6676 -0.545,0 -5.561,4.4109 -11.148,9.802 -11.156,10.7649 -17.925,14.039 -29.022,14.039 -6.722,0 -15.616,-2.9173 -15.616,-5.1224 0,-0.7062 1.937,-2.4885 4.305,-3.9607 2.367,-1.4722 6.966,-5.3992 10.218,-8.7266 l 5.915,-6.05 -4.337,-3.9605 c -4.105,-3.7495 -4.226,-4.1193 -2.282,-6.9443 1.13,-1.6411 6.082,-5.6659 11.005,-8.9441 9.615,-6.4024 10.975,-9.158 5.477,-11.0917 -2.654,-0.9334 -5.236,-0.4912 -10.943,1.8739 -5.894,2.4432 -8.233,2.8221 -11.095,1.7975 -3.425,-1.2257 -3.62,-1.7388 -3.499,-9.1906 0.167,-10.1965 4.755,-21.1745 9.979,-23.8762 4.721,-2.4414 9.14,-0.8111 23.744,8.7606 11.131,7.2952 16.262,8.2009 24.42,4.3107 4.033,-1.9231 5.532,-2.0157 10.31,-0.637 9.093,2.6236 20.742,4.7337 21.569,3.9068 0.423,-0.4226 -0.09,-3.358 -1.145,-6.5231 -1.052,-3.1651 -2.33,-13.727 -2.84,-23.4708 -0.988,-18.8859 -2.122,-24.0058 -5.315,-24.0058 -1.099,0 -3.579,3.1208 -5.512,6.9351 -7.054,13.9204 -9.485,16.906 -13.765,16.906 h -3.957 l -0.06,-10.2649 c -0.06,-10.9348 -1.236,-18.1542 -4.107,-25.2463 -1.68,-4.1512 -1.499,-4.9006 3.39,-14.0309 5.563,-10.3867 5.559,-10.1178 0.297,-22.6106 -2.804,-6.6576 -4.34,-8.4909 -9.673,-11.5455 -10.606,-6.0748 -10.231,-11.8087 0.931,-14.2024 11.484,-2.4629 14.961,-1.9624 17.618,2.5363 1.291,2.1855 2.858,3.9736 3.483,3.9736 0.624,0 4.247,-3.7248 8.051,-8.2772 l 6.916,-8.2772 -0.857,-14.1031 c -0.488,-8.0377 -0.283,-16.8676 0.476,-20.5308 2.582,-12.4541 3.88,-29.2564 2.61,-33.7898 -1.251,-4.4681 -9.303,-14.3597 -11.69,-14.3597 -2.677,0 -10.13,7.5982 -21.353,21.771 -13.296,16.7901 -23.228,26.5581 -29.795,29.3017 -2.655,1.1095 -8.906,1.9074 -14.942,1.9074 -9.412,0 -11.405,-0.4969 -21.421,-5.3404 -6.074,-2.9372 -12.897,-6.6623 -15.162,-8.2781 l -4.118,-2.9376 5.96,-0.8953 c 3.278,-0.4924 8.678,-0.9394 11.999,-0.9934 6.289,-0.1023 12.828,-3.5615 9.396,-4.9703 -0.981,-0.4027 -3.833,-2.531 -6.337,-4.7295 -4.41,-3.8722 -4.478,-4.0788 -2.192,-6.6049 3.535,-3.9061 8.183,-5.9274 17.529,-7.6221 10.183,-1.8465 21.759,-6.0303 23.933,-8.6497 1.267,-1.5263 0.964,-2.9265 -1.493,-6.9036 -2.478,-4.0121 -3.264,-7.7121 -4.011,-18.89625 -0.51,-7.64901 -1.327,-16.58941 -1.814,-19.86755 -1.169,-7.86369 2.709,-13.73539 12.422,-18.80983 5.845,-3.05362 8.761,-3.70543 16.547,-3.69934 11.646,0.009 17.334,1.52148 24.833,6.60329 10.727,7.26878 10.904,6.98543 10.108,-16.21333 -0.481,-14.0144 -1.363,-22.02116 -2.882,-26.15118 -2.039,-5.54575 -2.037,-6.28838 0.03,-10.86748 2.452,-5.43849 2.079,-17.2736 -0.631,-19.98318 -2.067,-2.06723 -5.312,-0.0162 -8.759,5.53644 -2.908,4.68263 -8.852,12.70389 -21.579,29.11768 -11.009,14.19791 -17.627,17.6175 -24.024,12.41395 l -2.85,-2.31788 4.739,-7.85765 c 5.294,-8.77794 5.245,-12.11887 -0.157,-10.76307 -5.596,1.40442 -17.547,-1.7084 -30.302,-7.89227 -11.425,-5.53945 -24.968,-15.32707 -27.522,-19.89034 -1.082,-1.93315 -0.386,-2.06969 6.533,-1.28162 4.26,0.48514 8.787,1.17142 10.062,1.52508 3.348,0.92862 2.861,-1.85562 -1.655,-9.46927 -5.65,-9.52448 -5.319,-10.7933 3.486,-13.35292 6.899,-2.00557 9.366,-1.98434 19.03,0.1637 2.613,0.58075 4.776,-0.55461 10.256,-5.38353 7.503,-6.61221 9.432,-11.19288 14.264,-33.86843 1.179,-5.53141 3.278,-11.92276 4.665,-14.20302 2.726,-4.48306 15.552,-11.55223 32.727,-18.03747 5.277,-1.99253 9.917,-4.14534 10.312,-4.78402 1.035,-1.67565 -8.123,-5.9828 -16.497,-7.75812 -7.87,-1.66863 -15.284,-5.64321 -16.516,-8.85459 -0.457,-1.19172 -1.761,-1.77533 -3.112,-1.39272 -1.278,0.3622 -6.645,1.05982 -11.927,1.55026 l -9.602,0.89169 v -3.94724 c 0,-3.12728 0.816,-4.28537 3.929,-5.57494 6.61,-2.73789 6.984,-4.18099 3.016,-11.62394 l -3.603,-6.75665 2.834,-3.07045 c 1.559,-1.68875 4.111,-5.81546 5.67,-9.17045 1.559,-3.35499 7.578,-11.36641 13.375,-17.80314 5.797,-6.43673 10.54,-12.41935 10.54,-13.29473 0,-1.89604 -2.993,-3.19949 -7.347,-3.19949 -1.736,0 -5.193,-1.78808 -7.682,-3.97351 -2.993,-2.62759 -6.037,-4.01398 -8.987,-4.09297 l -4.461,-0.11946 4.305,-1.24291 c 4.997,-1.4428 5.354,-3.57368 2.291,-13.67103 -1.597,-5.26403 -1.705,-8.08643 -0.554,-14.4335 1.098,-6.05805 1.056,-8.12152 -0.184,-8.88758 -1.119,-0.69173 -0.132,-2.29865 3.218,-5.24014 2.657,-2.33335 4.832,-4.81243 4.832,-5.50904 0,-0.69662 -3.013,-4.45202 -6.695,-8.34535 -6.584,-6.96137 -6.776,-7.05634 -11.589,-5.72698 -16.012,4.42212 -54.564,-9.00756 -54.564,-19.00757 0,-2.11898 0.44,-2.3229 2.562,-1.18729 3.174,1.69845 5.385,1.75978 5.385,0.14931 0,-0.67197 -2.033,-1.89286 -4.519,-2.71307 -4.525,-1.49359 -6.077,-3.51062 -6.077,-7.89956 0,-2.00371 0.926,-2.25723 6.346,-1.7365 5.383,0.51721 7.242,0.0199 12.251,-3.27716 3.249,-2.13779 8.8,-4.957 12.337,-6.26491 3.537,-1.30791 8.305,-3.99914 10.596,-5.9805 2.291,-1.98137 8.636,-6.79628 14.099,-10.69979 5.464,-3.90353 12.956,-9.80852 16.65,-13.12221 10.291,-9.23193 13.025,-10.36345 18.245,-7.55231 2.358,1.26975 8.38,5.84776 13.382,10.17338 8.674,7.49981 13.369,10.28176 14.852,8.79893 1.826,-1.82596 3.225,-22.28243 3.826,-55.96374 0.648,-36.28591 0.597,-37.28064 -2.115,-40.72848 -1.529,-1.94377 -3.275,-3.53414 -3.88,-3.53414 -0.604,0 -7.059,5.96026 -14.344,13.24503 -7.285,7.28477 -13.991,13.24503 -14.904,13.24503 -1.081,0 -0.821,-0.92541 0.746,-2.65712 3.269,-3.6129 1.376,-5.06453 -2.331,-1.78689 -5.677,5.0204 -10.119,7.04396 -15.143,6.89915 -2.777,-0.0801 -8.416,0.30584 -12.529,0.85755 -7.814,1.04806 -13.913,-1.10928 -11.97,-4.23344 0.498,-0.8009 6.715,-5.33849 13.815,-10.08352 7.101,-4.74504 17.611,-12.54812 23.356,-17.34019 5.745,-4.79207 11.83,-9.2246 13.52,-9.85008 4.186,-1.54836 12.693,0.51633 18.875,4.58135 2.797,1.83855 5.842,3.0524 6.767,2.69746 2.605,-0.99974 3.576,-10.61701 2.62,-25.95546 -0.573,-9.19217 -0.343,-15.939 0.672,-19.67384 1.068,-3.92885 1.142,-6.99642 0.239,-9.93377 -0.718,-2.33733 -1.923,-8.12384 -2.678,-12.85894 -1.52,-9.54543 -5.496,-14.56954 -11.529,-14.56954 -2.832,0 -3.959,1.41834 -7.774,9.78997 -2.454,5.38448 -5.847,11.08457 -7.54,12.66686 -4.177,3.90249 -26.219,16.43496 -27.192,15.46108 -0.429,-0.429 2.222,-5.70888 5.892,-11.73306 3.669,-6.02419 8.572,-14.75375 10.894,-19.39903 2.323,-4.64529 6.84,-11.10104 10.039,-14.34611 3.95,-4.00574 6.078,-7.46031 6.631,-10.75933 2.221,-13.26718 7.11,-23.31194 13.054,-26.81852 4.116,-2.42888 4.419,-3.11736 5.138,-11.69799 1.182,-14.09805 0.826,-14.68705 -8.888,-14.68705 -6.769,0 -9.25,-0.6689 -14.256,-3.84401 -3.334,-2.1142 -6.417,-4.41918 -6.852,-5.12216 -1.918,-3.10447 25.02,-4.0415 29.029,-1.00973 1.414,1.06955 3.614,1.96359 4.888,1.98676 2.978,0.0541 3.117,-7.16374 0.317,-16.39355 -3.056,-10.07605 -2.612,-12.13535 3.988,-18.45891 3.278,-3.14101 5.96,-6.40913 5.96,-7.26248 0,-0.85335 0.879,-1.55155 1.953,-1.55155 2.066,0 5.077,5.00402 6.439,10.70008 0.449,1.87842 2.321,4.10074 4.159,4.93849 4.773,2.1747 4.203,5.45502 -2.702,15.54017 -3.324,4.85629 -6.676,10.4072 -7.448,12.33537 -1.9,4.74722 -3.978,22.19222 -4.307,36.15484 l -0.269,11.45703 4.472,2.13262 c 5.682,2.7095 8.31,8.81899 9.274,21.55747 l 0.732,9.68724 h -3.412 c -5.803,0 -11.023,9.41864 -9.129,16.46999 1.577,5.86718 3.934,5.58646 6.689,-0.79677 2.981,-6.90506 6.31,-10.10112 11.517,-11.05766 5.138,-0.94371 5.858,-0.28243 11.833,10.8623 6.023,11.23564 5.767,11.92473 -6.074,16.35287 l -7.979,2.98409 -4.475,-4.33772 -4.476,-4.33772 -2.405,3.95485 c -2.434,4.00348 -2.642,10.3994 -1.893,58.35793 0.222,14.23968 1.971,14.14721 15.943,-0.84306 7.115,-7.63413 12.349,-12.17526 14.009,-12.15372 1.457,0.0189 6.657,1.00699 11.556,2.19574 7.573,1.83731 11.345,1.95474 25.166,0.78332 8.942,-0.75791 17.667,-1.81616 19.388,-2.35167 2.878,-0.89509 3.008,-0.74425 1.609,1.86914 -1.188,2.2209 -1.149,2.85184 0.181,2.88413 3.032,0.0736 -8.719,6.59444 -14.633,8.11974 -3.966,1.02308 -5.194,1.82608 -3.973,2.59961 1.116,0.70755 -0.427,1.1342 -4.195,1.15984 -4.341,0.0295 -5.421,0.3893 -3.973,1.32451 1.528,0.98752 1.069,1.2933 -1.987,1.3245 -8.036,0.082 -9.551,4.29901 -2.13,5.92891 3.457,0.75934 3.668,1.11673 2.327,3.95762 -1.132,2.39903 -1.996,2.84319 -3.729,1.9162 -1.24,-0.66368 -5.529,-1.2067 -9.531,-1.2067 h -7.276 l -0.871,7.61589 c -1.267,11.07869 -5.262,27.60138 -9.212,38.09478 -6.051,16.07606 -10.174,17.81772 -16.426,6.93833 -2.198,-3.8245 -5.15,-7.929 -6.56,-9.12112 -1.409,-1.19212 -2.887,-2.9802 -3.285,-3.97351 -1.387,-3.46982 -3.314,1.61645 -4.296,11.33687 -1.674,16.57078 -2.673,31.22796 -2.127,31.22796 0.291,0 2.862,-2.64865 5.711,-5.88589 9.666,-10.98064 26.926,-16.36968 40.373,-12.60492 3.974,1.11276 8.333,3.76963 12.089,7.36832 5.849,5.60392 5.87,5.65829 5.012,12.67991 -0.474,3.87852 -1.172,11.9046 -1.552,17.83574 -0.589,9.20635 -1.161,11.22611 -3.909,13.80703 -3.715,3.4907 -4.1,6.78817 -1.136,9.75156 2.768,2.7682 18.87,2.79661 28.12,0.0497 6.171,-1.83249 7.234,-1.82915 10.837,0.034 2.197,1.13617 3.995,2.39375 3.995,2.79462 0,1.09539 -11.344,15.61874 -13.777,17.63737 -3.831,3.17939 -2.239,4.08231 7.197,4.08231 10.763,0 17.871,-2.45358 22.136,-7.64149 4.207,-5.11771 3.805,-0.96641 -0.51,5.26026 -3.917,5.65211 -21.518,20.49636 -30.645,25.84518 -3.285,1.92478 -9.504,4.43611 -13.821,5.58073 l -7.85,2.08115 -4.214,12.58278 c -5.699,17.01583 -10.264,24.54853 -16.174,26.68555 -2.565,0.92749 -4.41,2.34619 -4.101,3.15269 0.31,0.80651 4.199,7.00462 8.644,13.77359 4.445,6.76897 8.081,13.76368 8.081,15.54379 0,1.78012 -1.49,5.4294 -3.311,8.10954 -1.821,2.68012 -3.311,6.29333 -3.311,8.02936 0,3.06729 0.215,3.13017 7.616,2.22742 4.189,-0.51094 11.837,-2.60771 16.997,-4.65949 8.846,-3.51777 14.522,-4.62605 21.413,-4.18082 3.756,0.24265 3.847,3.18192 0.381,12.30469 -1.43,3.76341 -2.289,7.34596 -1.909,7.96123 0.967,1.56497 9.469,1.38145 15.663,-0.33808 2.856,-0.79308 6.879,-3.12802 8.94,-5.18874 5.115,-5.11528 4.712,-2.89847 -1.725,9.47301 -13.895,26.70776 -30.512,34.80607 -51.27,24.98601 -4.618,-2.18495 -8.641,-3.97255 -8.94,-3.97255 -0.299,0 -0.544,1.19205 -0.544,2.649 0,3.85808 -1.48,3.30117 -7.347,-2.76364 -8.013,-8.2842 -34.676,-20.64335 -37.798,-17.52094 -1.456,1.45547 -2.031,13.28429 -0.711,14.6047 0.397,0.39705 3.393,0.0494 6.657,-0.77262 14.717,-3.70584 19.267,-0.59241 22.679,15.51912 3.414,16.12265 3.869,16.83431 14.524,22.71618 7.256,4.00544 11.084,5.3033 15.64,5.3033 12.693,0 14.725,11.08182 6.191,33.77483 -4.113,10.93734 -5.383,12.82032 -15.395,22.82979 l -10.912,10.90926 3.948,8.70715 c 4.176,9.20965 6.549,19.00765 6.717,27.73617 0.09,4.69625 -0.596,5.89633 -6.199,10.82641 -4.12,3.6254 -6.033,6.24325 -5.527,7.56278 0.897,2.33758 7.062,4.19117 20.047,6.02783 13.762,1.9464 17.941,6.34143 15.2,15.98363 -0.781,2.74698 9.212,7.58381 17.914,8.67111 5.203,0.65013 8.043,0.32447 11.141,-1.27781 2.287,-1.18266 4.159,-1.60833 4.159,-0.94591 0,2.21539 -9.86,10.14411 -18.903,15.20168 -4.922,2.7526 -9.753,6.31187 -10.735,7.9095 -0.982,1.59761 -5.998,9.46106 -11.146,17.47435 -5.149,8.0132 -9.757,16.3576 -10.24,18.543 -0.483,2.1854 -1.163,5.0216 -1.51,6.3025 -0.798,2.941 -19.36,17.1438 -29.106,22.2702 -8.397,4.4173 -13.724,4.9153 -16.682,1.5598 -1.27,-1.4404 -2.631,-7.4684 -3.596,-15.9226 -2.492,-21.8517 -4.674,-25.2315 -11.524,-17.8523 -7.12,7.6697 -7.769,10.2201 -7.503,29.4702 0.266,19.2766 2.339,37.3152 5.23,45.5308 0.994,2.8234 1.807,9.3836 1.807,14.5783 0,5.1946 0.612,11.527 1.36,14.0719 1.129,3.8431 0.876,5.6718 -1.493,10.794 -2.357,5.0975 -2.69,7.4662 -1.916,13.6582 0.559,4.4745 1.68,7.7767 2.784,8.2002 2.302,0.8835 9.26,-3.3405 14.466,-8.7817 2.168,-2.2664 6.707,-5.895 10.087,-8.0636 5.45,-3.4976 7.623,-4.023 19.236,-4.6518 23.59,-1.2774 23.573,-1.2672 26.345,-15.1376 1.281,-6.4086 2.016,-7.5632 6.119,-9.5997 2.564,-1.2733 9.282,-2.7055 14.929,-3.1828 l 10.266,-0.8678 -0.934,5.1695 c -0.514,2.8433 -1.477,6.2188 -2.139,7.5012 -0.662,1.2824 -0.81,6.679 -0.329,11.9924 0.911,10.0518 0.748,10.6052 -7.039,23.935 -0.9,1.5403 -1.645,4.1028 -1.656,5.6945 -0.01,1.5916 -0.601,4.4227 -1.311,6.2913 -1.251,3.2892 -1.126,3.3975 3.904,3.3975 h 5.197 l -1.455,4.1724 c -2.655,7.6175 -10.065,13.413 -23.938,18.7229 -7.068,2.7056 -14.676,4.9193 -16.905,4.9193 -4.947,0 -11.33,-3.1398 -13.097,-6.4428 -0.719,-1.343 -3.466,-5.0257 -6.105,-8.1839 -2.638,-3.1581 -6.243,-8.5957 -8.01,-12.0835 -3.638,-7.1778 -9.11,-10.7452 -15.529,-10.1224 -3.729,0.3618 -4.726,1.4203 -8.691,9.2229 l -4.478,8.8142 -0.694,30.2062 c -0.623,27.1507 0.523,58.4975 3.373,92.2317 l 0.979,11.5894 h -10.452 -10.452 z m 18.06,-295.3642 c 4.448,-4.663 6.424,-9.9387 5.483,-14.6432 -0.867,-4.33348 -0.03,-5.11706 10.081,-9.4958 9.558,-4.13735 11.92,-6.90032 11.92,-13.94155 0,-4.60245 -1.076,-7.12675 -5.724,-13.42942 -6.199,-8.4058 -14.57,-16.37087 -17.206,-16.37087 -2.834,0 -7.457,3.95975 -9.759,8.35854 -1.81,3.45747 -2.32,9.57357 -2.812,33.69444 -0.582,28.49966 -0.517,29.47016 1.97,29.47016 1.415,0 4.136,-1.639 6.047,-3.6423 z m -20.029,-11.79443 c 2.161,-2.60469 2.136,-33.11987 -0.03,-35.28408 -2.372,-2.37197 -9.11,1.7168 -17.356,10.5316 -7.233,7.73272 -7.949,9.02492 -7.949,14.34763 0,5.63126 0.185,5.90104 4.967,7.22893 2.731,0.75865 5.639,1.3827 6.46,1.38675 0.821,0.004 2.235,0.90144 3.142,1.9942 2.199,2.6488 8.498,2.5288 10.765,-0.20503 z m 50.158,-127.94072 c 0,-2.88577 -13.807,-22.83003 -16.088,-23.25027 -4.427,-0.81587 -19.858,20.06103 -17.567,23.76751 0.387,0.62612 8.118,1.13839 17.181,1.13839 12.302,0 16.477,-0.41963 16.474,-1.65563 z m -27.903,-21.70533 c 5.024,-6.38799 9.15,-26.97016 5.406,-26.97016 -4.057,0 -12.296,11.72543 -13.729,19.53699 -0.946,5.15923 0.981,10.92658 3.651,10.92658 1.058,0 3.16,-1.57204 4.672,-3.49341 z m 23.686,-8.79072 c 0.771,-0.92845 2.376,-4.55985 3.568,-8.06976 1.997,-5.88188 1.998,-6.56724 0.02,-8.75127 -1.18,-1.30329 -2.774,-4.67519 -3.543,-7.49314 -1.953,-7.15238 -3.357,-8.43481 -9.233,-8.43481 -5.109,0 -5.136,0.0279 -5.136,5.29802 0,3.64549 0.576,5.29801 1.845,5.29801 2.706,0 3.453,3.03377 3.453,14.01561 v 9.82545 h 3.812 c 2.096,0 4.442,-0.75964 5.212,-1.68811 z m -11.824,-158.46192 12.431,-0.77712 -4.484,-5.41906 c -2.466,-2.98048 -6.868,-8.77281 -9.782,-12.87183 -2.914,-4.09903 -6.177,-7.80216 -7.25,-8.22919 -3.878,-1.54271 -10.094,10.35406 -11.389,21.79731 l -0.942,8.32694 4.492,-1.02496 c 2.471,-0.56373 10.087,-1.37466 16.924,-1.80209 z m -17.332,-30.84335 c 1.879,-1.87913 2.138,-7.68212 0.343,-7.68212 -1.548,0 -2.127,1.00921 -3.232,5.62914 -0.921,3.85498 0.253,4.68918 2.889,2.05298 z m 17.437,-10.24405 c 0.754,-1.40906 1.371,-4.35402 1.371,-6.54435 0,-2.19033 0.596,-4.35078 1.324,-4.801 2.068,-1.27775 1.555,-5.58845 -0.77,-6.48081 -1.152,-0.44219 -3.584,-0.80396 -5.403,-0.80396 -2.967,0 -3.221,-0.39956 -2.459,-3.8662 0.874,-3.98154 -3.402,-14.67685 -5.868,-14.67685 -1.719,0 -6.692,6.61796 -6.692,8.90531 0,1.05905 2.653,4.95773 5.895,8.66373 3.242,3.70598 5.618,7.18464 5.281,7.73034 -0.337,0.54571 -0.05,2.37791 0.636,4.07156 0.688,1.69367 1.601,4.71847 2.029,6.72178 0.912,4.26435 2.727,4.68536 4.656,1.08045 z m 0.452,-60.95346 c 3.501,-4.332 7.557,-8.25452 9.013,-8.71671 1.456,-0.4622 2.433,-1.48442 2.171,-2.27158 -0.694,-2.08187 -23.472,-15.56254 -26.296,-15.56254 -1.674,0 -2.6,1.29258 -3.085,4.30463 -0.797,4.94917 -1.224,12.33266 -0.944,16.31788 0.221,3.14506 8.894,13.81705 11.223,13.80963 0.854,-0.003 4.417,-3.54931 7.918,-7.88131 z m -36.035,1.00407 c 4.626,-9.0664 2.258,-27.17035 -3.859,-29.51795 -1.465,-0.56196 -1.625,1.15527 -0.864,9.27295 0.878,9.36441 0.721,10.28318 -2.599,15.3011 l -3.533,5.33848 3.043,2.53748 c 1.674,1.39562 3.479,2.55731 4.011,2.58155 0.531,0.0242 2.242,-2.45688 3.801,-5.51361 z m -74.912,-5.12647 c 1.425,-2.30654 -0.198,-2.79502 -2.015,-0.60614 -1.045,1.25879 -1.145,2.01877 -0.267,2.01877 0.775,0 1.802,-0.63569 2.282,-1.41263 z m -4.69,-1.23638 c 0,-0.72848 -0.859,-1.3245 -1.909,-1.3245 -1.05,0 -2.277,0.59602 -2.727,1.3245 -0.45,0.72848 0.408,1.3245 1.908,1.3245 1.5,0 2.728,-0.59602 2.728,-1.3245 z m 115.231,-87.49539 c 0,-0.68549 -0.596,-1.24633 -1.324,-1.24633 -0.729,0 -1.325,0.92922 -1.325,2.06492 0,1.13571 0.596,1.69656 1.325,1.24634 0.728,-0.45023 1.324,-1.37945 1.324,-2.06493 z m 1.325,-5.21984 c 0,-1.45696 -0.596,-2.64901 -1.325,-2.64901 -0.728,0 -1.324,1.19205 -1.324,2.64901 0,1.45695 0.596,2.649 1.324,2.649 0.729,0 1.325,-1.19205 1.325,-2.649 z m 17.231,-14.31308 2.954,-2.39254 -3.139,-1.99261 c -1.726,-1.09593 -5.294,-3.29683 -7.929,-4.8909 l -4.79,-2.89829 -3.545,2.7889 -3.546,2.7889 5.024,4.43941 c 5.688,5.02596 10.561,5.72804 14.971,2.15713 z m 43.696,-26.74653 c 0,-1.68238 -4.019,-1.68238 -6.622,0 -1.508,0.97431 -0.949,1.28884 2.317,1.30423 2.368,0.0112 4.305,-0.57575 4.305,-1.30423 z m -52.98,-56.87547 c 0,-1.56272 -2.583,-3.23443 -3.532,-2.28568 -0.949,0.94877 0.723,3.53202 2.286,3.53202 0.685,0 1.246,-0.56085 1.246,-1.24634 z m -2.649,-6.03843 c 0,-1.09272 -0.894,-1.98676 -1.987,-1.98676 -1.093,0 -1.987,0.89404 -1.987,1.98676 0,1.09271 0.894,1.98675 1.987,1.98675 1.093,0 1.987,-0.89404 1.987,-1.98675 z m -37.086,-30.46358 c 0,-3.95362 -0.57,-5.96026 -1.692,-5.96026 -2.39,0 -7.58,3.83449 -7.58,5.59995 0,2.42666 4.207,6.32058 6.828,6.32058 2.013,0 2.444,-1.0499 2.444,-5.96027 z"
     id="path76"
     inkscape:connector-curvature="0" />
</svg>
